<svg width="631" height="484" viewBox="0 0 631 484" fill="none" xmlns="http://www.w3.org/2000/svg">
<g opacity="0.88">
<path d="M92.3844 435.659C215.571 500.009 415.28 500.009 538.467 435.659C661.654 371.309 661.639 266.97 538.467 202.621C415.295 138.271 215.571 138.271 92.3844 202.621C-30.8022 266.97 -30.7875 371.339 92.3844 435.659Z" fill="#5B3C9E"/>
</g>
<path d="M106.41 299.976L172.098 262.045V99.9871L106.41 137.918V299.976Z" fill="#37474F"/>
<path d="M106.41 137.918L34.7385 96.5469V258.59L106.41 299.976V137.918Z" fill="#455A64"/>
<path d="M172.098 99.9871L100.441 58.6162L34.7385 96.5469L106.41 137.918L172.098 99.9871Z" fill="#37474F"/>
<path d="M61.5693 274.115V246.52L80.1377 257.194V284.774L61.5693 274.115Z" fill="#E0E0E0"/>
<path d="M69.67 251.181L71.4784 252.224V279.805L69.67 278.761V251.181Z" fill="#263238"/>
<path d="M98.8973 254.239V238.861L86.6066 231.76V247.138L98.8973 254.239Z" fill="#E0E0E0"/>
<path d="M86.6066 247.138L89.6792 245.373V233.538L86.6066 231.76V247.138Z" fill="#263238"/>
<path d="M98.8973 250.695L89.6792 245.373L86.6066 247.138L98.8973 254.239V250.695Z" fill="#37474F"/>
<path d="M98.8973 283.701V268.323L86.6066 261.237V276.615L98.8973 283.701Z" fill="#E0E0E0"/>
<path d="M86.6066 276.615L89.6792 274.836V263.001L86.6066 261.237V276.615Z" fill="#263238"/>
<path d="M98.8973 280.158L89.6792 274.836L86.6066 276.615L98.8973 283.701V280.158Z" fill="#37474F"/>
<path d="M98.8973 225.394V210.016L86.6066 202.929V218.307L98.8973 225.394Z" fill="#E0E0E0"/>
<path d="M86.6066 218.307L89.6792 216.528V204.693L86.6066 202.929V218.307Z" fill="#263238"/>
<path d="M98.8973 221.85L89.6792 216.528L86.6066 218.307L98.8973 225.394V221.85Z" fill="#37474F"/>
<path d="M98.8973 196.549V181.171L86.6066 174.084V189.462L98.8973 196.549Z" fill="#E0E0E0"/>
<path d="M86.6066 189.462L89.6792 187.683V175.848L86.6066 174.084V189.462Z" fill="#263238"/>
<path d="M98.8973 193.006L89.6792 187.683L86.6066 189.462L98.8973 196.549V193.006Z" fill="#37474F"/>
<path d="M98.8973 167.718V152.326L86.6066 145.239V160.617L98.8973 167.718Z" fill="#E0E0E0"/>
<path d="M86.6066 160.617L89.6792 158.838V147.018L86.6066 145.239V160.617Z" fill="#263238"/>
<path d="M98.8973 164.161L89.6792 158.838L86.6066 160.617L98.8973 167.718V164.161Z" fill="#37474F"/>
<path d="M54.5566 228.643V213.265L42.2659 206.164V221.542L54.5566 228.643Z" fill="#E0E0E0"/>
<path d="M42.2659 221.542L45.3386 219.778V207.943L42.2659 206.164V221.542Z" fill="#263238"/>
<path d="M54.5566 225.1L45.3386 219.778L42.2659 221.542L54.5566 228.643V225.1Z" fill="#37474F"/>
<path d="M54.5566 258.105V242.727L42.2659 235.641V251.004L54.5566 258.105Z" fill="#E0E0E0"/>
<path d="M42.2659 251.004L45.3386 249.24V237.405L42.2659 235.641V251.004Z" fill="#263238"/>
<path d="M54.5566 254.562L45.3386 249.24L42.2659 251.004L54.5566 258.105V254.562Z" fill="#37474F"/>
<path d="M54.5566 199.548V184.17L42.2659 177.083V192.462L54.5566 199.548Z" fill="#E0E0E0"/>
<path d="M42.2659 192.462L45.3386 190.683V178.848L42.2659 177.083V192.462Z" fill="#263238"/>
<path d="M54.5566 196.005L45.3386 190.683L42.2659 192.462L54.5566 199.548V196.005Z" fill="#37474F"/>
<path d="M54.5566 170.468V155.09L42.2659 147.989V163.367L54.5566 170.468Z" fill="#E0E0E0"/>
<path d="M42.2659 163.367L45.3386 161.602V149.767L42.2659 147.989V163.367Z" fill="#263238"/>
<path d="M54.5566 166.925L45.3386 161.602L42.2659 163.367L54.5566 170.468V166.925Z" fill="#37474F"/>
<path d="M54.5566 141.373V125.995L42.2659 118.908V134.286L54.5566 141.373Z" fill="#FAFAFA"/>
<path d="M42.2659 134.286L45.3386 132.508V120.673L42.2659 118.908V134.286Z" fill="#263238"/>
<path d="M54.5566 137.83L45.3386 132.508L42.2659 134.286L54.5566 141.373V137.83Z" fill="#37474F"/>
<path d="M61.5693 129.273L68.7291 133.404V236.832L61.5693 232.715V129.273Z" fill="#FAFAFA"/>
<path d="M61.5693 129.273L64.5979 131.023V231.01L61.5693 232.715V129.273Z" fill="#263238"/>
<path d="M64.5979 231.01L68.7291 233.303V236.832L61.5693 232.715L64.5979 231.01Z" fill="#37474F"/>
<path d="M72.9633 135.786L80.1377 139.903V243.345L72.9633 239.213V135.786Z" fill="#FAFAFA"/>
<path d="M72.9633 135.786L75.9918 137.536V237.508L72.9633 239.213V135.786Z" fill="#263238"/>
<path d="M75.9918 237.508L80.1377 239.801V243.345L72.9633 239.213L75.9918 237.508Z" fill="#37474F"/>
<path d="M114.011 254.239V238.861L126.287 231.76V247.138L114.011 254.239Z" fill="#E0E0E0"/>
<path d="M126.287 247.138L123.214 245.373L123.229 233.538L126.287 231.76V247.138Z" fill="#455A64"/>
<path d="M114.011 250.695L123.214 245.373L126.287 247.138L114.011 254.239V250.695Z" fill="#263238"/>
<path d="M133.108 243.256V227.878L145.399 220.792V236.17L133.108 243.256Z" fill="#E0E0E0"/>
<path d="M145.399 236.17L142.326 234.391V222.556L145.399 220.792V236.17Z" fill="#455A64"/>
<path d="M133.108 239.713L142.326 234.391L145.399 236.17L133.108 243.256V239.713Z" fill="#263238"/>
<path d="M152.206 232.289V216.911L164.497 209.81V225.188L152.206 232.289Z" fill="#E0E0E0"/>
<path d="M164.497 225.188L161.424 223.424V211.589L164.497 209.81V225.188Z" fill="#455A64"/>
<path d="M152.206 228.731L161.424 223.424L164.497 225.188L152.206 232.289V228.731Z" fill="#263238"/>
<path d="M114.011 283.701V268.323L126.287 261.237V276.615L114.011 283.701Z" fill="#E0E0E0"/>
<path d="M126.287 276.615L123.214 274.836L123.229 263.001L126.287 261.237V276.615Z" fill="#455A64"/>
<path d="M114.011 280.158L123.214 274.836L126.287 276.615L114.011 283.701V280.158Z" fill="#263238"/>
<path d="M133.108 272.733V257.341L145.399 250.254V265.633L133.108 272.733Z" fill="#E0E0E0"/>
<path d="M145.399 265.633L142.326 263.854V252.033L145.399 250.254V265.633Z" fill="#455A64"/>
<path d="M133.108 269.176L142.326 263.854L145.399 265.633L133.108 272.733V269.176Z" fill="#263238"/>
<path d="M152.206 261.751V246.373L164.497 239.272V254.65L152.206 261.751Z" fill="#E0E0E0"/>
<path d="M164.497 254.65L161.424 252.886V241.051L164.497 239.272V254.65Z" fill="#455A64"/>
<path d="M152.206 258.208L161.424 252.886L164.497 254.65L152.206 261.751V258.208Z" fill="#263238"/>
<path d="M114.011 225.394V210.016L126.287 202.929V218.307L114.011 225.394Z" fill="#E0E0E0"/>
<path d="M126.287 218.307L123.214 216.528L123.229 204.693L126.287 202.929V218.307Z" fill="#455A64"/>
<path d="M114.011 221.85L123.214 216.528L126.287 218.307L114.011 225.394V221.85Z" fill="#263238"/>
<path d="M133.108 214.294V198.916L145.399 191.829V207.207L133.108 214.294Z" fill="#E0E0E0"/>
<path d="M145.399 207.207L142.326 205.429V193.594L145.399 191.829V207.207Z" fill="#455A64"/>
<path d="M133.108 210.751L142.326 205.429L145.399 207.207L133.108 214.294V210.751Z" fill="#263238"/>
<path d="M152.206 203.194V187.816L164.497 180.729V196.108L152.206 203.194Z" fill="#E0E0E0"/>
<path d="M164.497 196.108L161.424 194.329V182.494L164.497 180.729V196.108Z" fill="#455A64"/>
<path d="M152.206 199.651L161.424 194.329L164.497 196.108L152.206 203.194V199.651Z" fill="#263238"/>
<path d="M114.011 196.549V181.171L126.287 174.084V189.462L114.011 196.549Z" fill="#E0E0E0"/>
<path d="M126.287 189.462L123.214 187.683L123.229 175.848L126.287 174.084V189.462Z" fill="#455A64"/>
<path d="M114.011 193.006L123.214 187.683L126.287 189.462L114.011 196.549V193.006Z" fill="#263238"/>
<path d="M133.108 185.331V169.953L145.399 162.852V178.245L133.108 185.331Z" fill="#E0E0E0"/>
<path d="M145.399 178.245L142.326 176.466V164.631L145.399 162.852V178.245Z" fill="#455A64"/>
<path d="M133.108 181.788L142.326 176.466L145.399 178.245L133.108 185.331V181.788Z" fill="#263238"/>
<path d="M152.206 174.114V158.736L164.497 151.635V167.013L152.206 174.114Z" fill="#E0E0E0"/>
<path d="M164.497 167.013L161.424 165.248V153.414L164.497 151.635V167.013Z" fill="#455A64"/>
<path d="M152.206 170.571L161.424 165.248L164.497 167.013L152.206 174.114V170.571Z" fill="#263238"/>
<path d="M114.011 167.718V152.326L126.287 145.239V160.617L114.011 167.718Z" fill="#E0E0E0"/>
<path d="M126.287 160.617L123.214 158.838L123.229 147.018L126.287 145.239V160.617Z" fill="#455A64"/>
<path d="M114.011 164.161L123.214 158.838L126.287 160.617L114.011 167.718V164.161Z" fill="#263238"/>
<path d="M133.108 156.369V140.99L145.399 133.889V149.268L133.108 156.369Z" fill="#E0E0E0"/>
<path d="M145.399 149.268L142.326 147.503V135.668L145.399 133.889V149.268Z" fill="#455A64"/>
<path d="M133.108 152.825L142.326 147.503L145.399 149.268L133.108 156.369V152.825Z" fill="#263238"/>
<path d="M152.206 145.019V129.641L164.497 122.554V137.932L152.206 145.019Z" fill="#E0E0E0"/>
<path d="M164.497 137.932L161.424 136.154V124.319L164.497 122.554V137.932Z" fill="#455A64"/>
<path d="M152.206 141.476L161.424 136.154L164.497 137.932L152.206 145.019V141.476Z" fill="#263238"/>
<path d="M46.6912 96.5469L100.441 65.5113L160.145 99.9871L106.41 131.023L46.6912 96.5469Z" fill="#F0F0F0"/>
<path d="M100.441 65.5113V72.4065L154.176 103.442L160.145 99.9871L100.441 65.5113Z" fill="#455A64"/>
<path d="M100.441 65.5113L46.6912 96.5469L52.6601 99.9871L100.441 72.4065V65.5113Z" fill="#263238"/>
<path d="M520.898 299.976L455.211 262.045V99.9871L520.913 137.918L520.898 299.976Z" fill="#455A64"/>
<path d="M520.913 137.918L592.57 96.5469V258.59L520.898 299.976L520.913 137.918Z" fill="#37474F"/>
<path d="M455.211 99.9871L526.882 58.6162L592.57 96.5469L520.913 137.918L455.211 99.9871Z" fill="#37474F"/>
<path d="M565.753 274.115V246.52L547.17 257.194L547.185 284.774L565.753 274.115Z" fill="#E0E0E0"/>
<path d="M557.638 251.181L555.845 252.224V279.805L557.638 278.761V251.181Z" fill="#263238"/>
<path d="M528.411 254.239V238.861L540.702 231.76V247.138L528.411 254.239Z" fill="#E0E0E0"/>
<path d="M540.702 247.138L537.629 245.373V233.538L540.702 231.76V247.138Z" fill="#263238"/>
<path d="M528.411 250.695L537.629 245.373L540.702 247.138L528.411 254.239V250.695Z" fill="#455A64"/>
<path d="M528.411 283.701V268.323L540.702 261.237V276.615L528.411 283.701Z" fill="#E0E0E0"/>
<path d="M540.702 276.615L537.629 274.836V263.001L540.702 261.237V276.615Z" fill="#263238"/>
<path d="M528.411 280.158L537.629 274.836L540.702 276.615L528.411 283.701V280.158Z" fill="#455A64"/>
<path d="M528.411 225.394V210.016L540.702 202.929V218.307L528.411 225.394Z" fill="#E0E0E0"/>
<path d="M540.702 218.307L537.629 216.528V204.693L540.702 202.929V218.307Z" fill="#263238"/>
<path d="M528.411 221.85L537.629 216.528L540.702 218.307L528.411 225.394V221.85Z" fill="#455A64"/>
<path d="M528.411 196.549V181.171L540.702 174.084V189.462L528.411 196.549Z" fill="#E0E0E0"/>
<path d="M540.702 189.462L537.629 187.683V175.848L540.702 174.084V189.462Z" fill="#263238"/>
<path d="M528.411 193.006L537.629 187.683L540.702 189.462L528.411 196.549V193.006Z" fill="#455A64"/>
<path d="M528.411 167.718V152.326L540.702 145.239V160.617L528.411 167.718Z" fill="#E0E0E0"/>
<path d="M540.702 160.617L537.629 158.838V147.018L540.702 145.239V160.617Z" fill="#263238"/>
<path d="M528.411 164.161L537.629 158.838L540.702 160.617L528.411 167.718V164.161Z" fill="#455A64"/>
<path d="M572.766 228.643V213.265L585.042 206.164V221.542L572.766 228.643Z" fill="#E0E0E0"/>
<path d="M585.042 221.542L581.984 219.778V207.943L585.042 206.164V221.542Z" fill="#263238"/>
<path d="M572.766 225.1L581.984 219.778L585.042 221.542L572.766 228.643V225.1Z" fill="#455A64"/>
<path d="M572.766 258.105V242.727L585.042 235.641V251.004L572.766 258.105Z" fill="#E0E0E0"/>
<path d="M585.042 251.004L581.984 249.24V237.405L585.042 235.641V251.004Z" fill="#263238"/>
<path d="M572.766 254.562L581.984 249.24L585.042 251.004L572.766 258.105V254.562Z" fill="#455A64"/>
<path d="M572.766 199.548V184.17L585.042 177.083V192.462L572.766 199.548Z" fill="#E0E0E0"/>
<path d="M585.042 192.462L581.984 190.683V178.848L585.042 177.083V192.462Z" fill="#263238"/>
<path d="M572.766 196.005L581.984 190.683L585.042 192.462L572.766 199.548V196.005Z" fill="#455A64"/>
<path d="M572.766 170.468V155.09L585.042 147.989V163.367L572.766 170.468Z" fill="#E0E0E0"/>
<path d="M585.042 163.367L581.984 161.602V149.767L585.042 147.989V163.367Z" fill="#263238"/>
<path d="M572.766 166.925L581.984 161.602L585.042 163.367L572.766 170.468V166.925Z" fill="#455A64"/>
<path d="M572.766 141.373V125.995L585.042 118.908V134.286L572.766 141.373Z" fill="#FAFAFA"/>
<path d="M585.042 134.286L581.984 132.508V120.673L585.042 118.908V134.286Z" fill="#263238"/>
<path d="M572.766 137.83L581.984 132.508L585.042 134.286L572.766 141.373V137.83Z" fill="#455A64"/>
<path d="M565.754 129.273L558.579 133.404V236.832L565.754 232.715V129.273Z" fill="#FAFAFA"/>
<path d="M565.754 129.273L562.71 131.023V231.01L565.754 232.715V129.273Z" fill="#263238"/>
<path d="M562.71 231.01L558.579 233.303V236.832L565.754 232.715L562.71 231.01Z" fill="#455A64"/>
<path d="M554.345 135.786L547.185 139.903V243.345L554.345 239.213V135.786Z" fill="#FAFAFA"/>
<path d="M554.345 135.786L551.316 137.536V237.508L554.345 239.213V135.786Z" fill="#263238"/>
<path d="M551.317 237.508L547.185 239.801V243.345L554.345 239.213L551.317 237.508Z" fill="#455A64"/>
<path d="M513.312 254.239V238.861L501.021 231.76V247.138L513.312 254.239Z" fill="#E0E0E0"/>
<path d="M501.021 247.138L504.094 245.373V233.538L501.021 231.76V247.138Z" fill="#37474F"/>
<path d="M513.312 250.695L504.094 245.373L501.021 247.138L513.312 254.239V250.695Z" fill="#263238"/>
<path d="M494.2 243.256V227.878L481.924 220.792V236.17L494.2 243.256Z" fill="#E0E0E0"/>
<path d="M481.924 236.17L484.982 234.391V222.556L481.924 220.792V236.17Z" fill="#37474F"/>
<path d="M494.2 239.713L484.982 234.391L481.924 236.17L494.2 243.256V239.713Z" fill="#263238"/>
<path d="M475.102 232.289V216.911L462.812 209.81V225.188L475.102 232.289Z" fill="#E0E0E0"/>
<path d="M462.812 225.188L465.884 223.424V211.589L462.812 209.81V225.188Z" fill="#37474F"/>
<path d="M475.102 228.731L465.884 223.424L462.812 225.188L475.102 232.289V228.731Z" fill="#263238"/>
<path d="M513.312 283.701V268.323L501.021 261.237V276.615L513.312 283.701Z" fill="#E0E0E0"/>
<path d="M501.021 276.615L504.094 274.836V263.001L501.021 261.237V276.615Z" fill="#37474F"/>
<path d="M513.312 280.158L504.094 274.836L501.021 276.615L513.312 283.701V280.158Z" fill="#263238"/>
<path d="M494.2 272.733V257.341L481.924 250.254V265.633L494.2 272.733Z" fill="#E0E0E0"/>
<path d="M481.924 265.633L484.982 263.854V252.033L481.924 250.254V265.633Z" fill="#37474F"/>
<path d="M494.2 269.176L484.982 263.854L481.924 265.633L494.2 272.733V269.176Z" fill="#263238"/>
<path d="M475.102 261.751V246.373L462.812 239.272V254.65L475.102 261.751Z" fill="#E0E0E0"/>
<path d="M462.812 254.65L465.884 252.886V241.051L462.812 239.272V254.65Z" fill="#37474F"/>
<path d="M475.102 258.208L465.884 252.886L462.812 254.65L475.102 261.751V258.208Z" fill="#263238"/>
<path d="M513.312 225.394V210.016L501.021 202.929V218.307L513.312 225.394Z" fill="#E0E0E0"/>
<path d="M501.021 218.307L504.094 216.528V204.693L501.021 202.929V218.307Z" fill="#37474F"/>
<path d="M513.312 221.85L504.094 216.528L501.021 218.307L513.312 225.394V221.85Z" fill="#263238"/>
<path d="M494.2 214.294V198.916L481.924 191.829V207.207L494.2 214.294Z" fill="#E0E0E0"/>
<path d="M481.924 207.207L484.982 205.429V193.594L481.924 191.829V207.207Z" fill="#37474F"/>
<path d="M494.2 210.751L484.982 205.429L481.924 207.207L494.2 214.294V210.751Z" fill="#263238"/>
<path d="M475.102 203.194V187.816L462.812 180.729V196.108L475.102 203.194Z" fill="#E0E0E0"/>
<path d="M462.812 196.108L465.884 194.329V182.494L462.812 180.729V196.108Z" fill="#37474F"/>
<path d="M475.102 199.651L465.884 194.329L462.812 196.108L475.102 203.194V199.651Z" fill="#263238"/>
<path d="M513.312 196.549V181.171L501.021 174.084V189.462L513.312 196.549Z" fill="#E0E0E0"/>
<path d="M501.021 189.462L504.094 187.683V175.848L501.021 174.084V189.462Z" fill="#37474F"/>
<path d="M513.312 193.006L504.094 187.683L501.021 189.462L513.312 196.549V193.006Z" fill="#263238"/>
<path d="M494.2 185.331V169.953L481.924 162.852V178.245L494.2 185.331Z" fill="#E0E0E0"/>
<path d="M481.924 178.245L484.982 176.466V164.631L481.924 162.852V178.245Z" fill="#37474F"/>
<path d="M494.2 181.788L484.982 176.466L481.924 178.245L494.2 185.331V181.788Z" fill="#263238"/>
<path d="M475.102 174.114V158.736L462.812 151.635V167.013L475.102 174.114Z" fill="#E0E0E0"/>
<path d="M462.812 167.013L465.884 165.248V153.414L462.812 151.635V167.013Z" fill="#37474F"/>
<path d="M475.102 170.571L465.884 165.248L462.812 167.013L475.102 174.114V170.571Z" fill="#263238"/>
<path d="M513.312 167.718V152.326L501.021 145.239V160.617L513.312 167.718Z" fill="#E0E0E0"/>
<path d="M501.021 160.617L504.094 158.838V147.018L501.021 145.239V160.617Z" fill="#37474F"/>
<path d="M513.312 164.161L504.094 158.838L501.021 160.617L513.312 167.718V164.161Z" fill="#263238"/>
<path d="M494.2 156.369V140.99L481.924 133.889V149.268L494.2 156.369Z" fill="#E0E0E0"/>
<path d="M481.924 149.268L484.982 147.503V135.668L481.924 133.889V149.268Z" fill="#37474F"/>
<path d="M494.2 152.825L484.982 147.503L481.924 149.268L494.2 156.369V152.825Z" fill="#263238"/>
<path d="M475.102 145.019V129.641L462.812 122.554V137.932L475.102 145.019Z" fill="#E0E0E0"/>
<path d="M462.812 137.932L465.884 136.154V124.319L462.812 122.554V137.932Z" fill="#37474F"/>
<path d="M475.102 141.476L465.884 136.154L462.812 137.932L475.102 145.019V141.476Z" fill="#263238"/>
<path d="M580.632 96.5469L526.882 65.5113L467.163 99.9871L520.913 131.023L580.632 96.5469Z" fill="#F0F0F0"/>
<path d="M526.882 65.5113V72.4065L473.132 103.442L467.163 99.9871L526.882 65.5113Z" fill="#263238"/>
<path d="M526.882 65.5113L580.632 96.5469L574.648 99.9871L526.882 72.4065V65.5113Z" fill="#455A64"/>
<path d="M318.616 439.496L461.547 356.975C462.507 356.466 463.31 355.704 463.87 354.773C464.43 353.842 464.726 352.776 464.726 351.69C464.726 350.603 464.43 349.537 463.87 348.606C463.31 347.675 462.507 346.914 461.547 346.404L318.601 263.883C317.615 263.383 316.524 263.123 315.418 263.123C314.312 263.123 313.222 263.383 312.235 263.883L169.304 346.346C168.345 346.855 167.542 347.616 166.982 348.547C166.422 349.478 166.126 350.544 166.126 351.631C166.126 352.717 166.422 353.783 166.982 354.715C167.542 355.646 168.345 356.407 169.304 356.916L312.25 439.437C313.232 439.946 314.32 440.217 315.426 440.227C316.532 440.237 317.625 439.987 318.616 439.496Z" fill="#7E57C2"/>
<path d="M318.616 439.496L461.547 356.975C462.507 356.466 463.31 355.704 463.87 354.773C464.43 353.842 464.726 352.776 464.726 351.69C464.726 350.603 464.43 349.537 463.87 348.606C463.31 347.675 462.507 346.914 461.547 346.404L318.601 263.883C317.615 263.383 316.524 263.123 315.418 263.123C314.312 263.123 313.222 263.383 312.235 263.883L169.304 346.346C168.345 346.855 167.542 347.616 166.982 348.547C166.422 349.478 166.126 350.544 166.126 351.631C166.126 352.717 166.422 353.783 166.982 354.715C167.542 355.646 168.345 356.407 169.304 356.916L312.25 439.437C313.232 439.946 314.32 440.217 315.426 440.227C316.532 440.237 317.625 439.987 318.616 439.496Z" fill="#7E57C2"/>
<path d="M318.616 439.496L461.547 356.975C462.507 356.466 463.31 355.704 463.87 354.773C464.43 353.842 464.726 352.776 464.726 351.69C464.726 350.603 464.43 349.537 463.87 348.606C463.31 347.675 462.507 346.914 461.547 346.404L318.601 263.883C317.615 263.383 316.524 263.123 315.418 263.123C314.312 263.123 313.222 263.383 312.235 263.883L169.304 346.346C168.345 346.855 167.542 347.616 166.982 348.547C166.422 349.478 166.126 350.544 166.126 351.631C166.126 352.717 166.422 353.783 166.982 354.715C167.542 355.646 168.345 356.407 169.304 356.916L312.25 439.437C313.232 439.946 314.32 440.217 315.426 440.227C316.532 440.237 317.625 439.987 318.616 439.496Z" fill="#7E57C2"/>
<path opacity="0.2" d="M318.616 439.496L461.547 356.975C462.507 356.466 463.31 355.704 463.87 354.773C464.43 353.842 464.726 352.776 464.726 351.69C464.726 350.603 464.43 349.537 463.87 348.606C463.31 347.675 462.507 346.914 461.547 346.404L318.601 263.883C317.615 263.383 316.524 263.123 315.418 263.123C314.312 263.123 313.222 263.383 312.235 263.883L169.304 346.346C168.345 346.855 167.542 347.616 166.982 348.547C166.422 349.478 166.126 350.544 166.126 351.631C166.126 352.717 166.422 353.783 166.982 354.715C167.542 355.646 168.345 356.407 169.304 356.916L312.25 439.437C313.232 439.946 314.32 440.217 315.426 440.227C316.532 440.237 317.625 439.987 318.616 439.496Z" fill="black"/>
<path d="M169.304 350.08L312.25 432.601C313.237 433.101 314.327 433.361 315.433 433.361C316.539 433.361 317.629 433.101 318.616 432.601L461.547 350.08C461.931 349.949 462.265 349.702 462.501 349.373C462.737 349.043 462.864 348.648 462.864 348.242C462.864 347.837 462.737 347.441 462.501 347.112C462.265 346.782 461.931 346.535 461.547 346.404L318.601 263.883C317.615 263.383 316.524 263.123 315.418 263.123C314.312 263.123 313.222 263.383 312.235 263.883L169.304 346.346C168.898 346.461 168.54 346.705 168.285 347.042C168.031 347.379 167.893 347.79 167.893 348.213C167.893 348.635 168.031 349.046 168.285 349.383C168.54 349.72 168.898 349.965 169.304 350.08Z" fill="#7E57C2"/>
<path d="M339.316 403.403L440.832 344.787V99.9871L339.316 158.603V403.403Z" fill="#37474F"/>
<path d="M315.426 420.649V172.394L190.019 99.9871V348.242L315.426 420.649Z" fill="#455A64"/>
<path d="M315.426 317.206L190.019 244.8V237.905L178.067 244.8L315.426 324.102V317.206Z" fill="#7E57C2"/>
<path opacity="0.5" d="M315.426 317.206L190.019 244.8V237.905L178.067 244.8L315.426 324.102V317.206Z" fill="white"/>
<path d="M178.067 244.8L315.426 324.102V330.997L178.067 251.695V244.8Z" fill="#7E57C2"/>
<path d="M315.426 317.207L339.316 303.416L345.285 306.871L315.426 324.102V317.207Z" fill="#7E57C2"/>
<path opacity="0.5" d="M315.426 317.207L339.316 303.416L345.285 306.871L315.426 324.102V317.207Z" fill="white"/>
<path d="M315.426 330.997L345.285 313.766V306.871L315.426 324.102V330.997Z" fill="#7E57C2"/>
<path opacity="0.2" d="M315.426 330.997L345.285 313.766V306.871L315.426 324.102V330.997Z" fill="black"/>
<path d="M315.426 172.394L339.316 158.603V303.416L315.426 317.206V172.394Z" fill="#263238"/>
<path d="M315.426 330.997L339.316 317.206V406.858L315.426 420.649V330.997Z" fill="#263238"/>
<path d="M303.488 296.521V262.045L279.597 248.255V282.731L303.488 296.521Z" fill="#7E57C2"/>
<path opacity="0.5" d="M303.488 296.521V262.045L279.597 248.255V282.731L303.488 296.521Z" fill="white"/>
<path d="M279.597 282.731L285.566 279.291V251.695L279.597 248.255V282.731Z" fill="#263238"/>
<path d="M303.488 289.626L285.566 279.291L279.597 282.731L303.488 296.521V289.626Z" fill="#263238"/>
<path d="M267.645 275.836V241.36L237.785 224.115V258.59L267.645 275.836Z" fill="#7E57C2"/>
<path opacity="0.5" d="M267.645 275.836V241.36L237.785 224.115V258.59L267.645 275.836Z" fill="white"/>
<path d="M243.754 255.15L243.769 227.569L237.785 224.115V258.59L243.754 255.15Z" fill="#263238"/>
<path d="M267.645 268.94V275.836L237.785 258.59L243.754 255.15L267.645 268.94Z" fill="#263238"/>
<path d="M354.239 370.648V336.172L384.098 318.941V353.417L354.239 370.648Z" fill="#7E57C2"/>
<path d="M378.129 349.962V322.382L384.098 318.941V353.417L378.129 349.962Z" fill="#263238"/>
<path d="M354.239 363.752V370.648L384.098 353.417L378.129 349.962L354.239 363.752Z" fill="#263238"/>
<path d="M354.239 313.193V278.717L384.098 261.472V295.948L354.239 313.193Z" fill="#7E57C2"/>
<path d="M378.129 292.507V264.912L384.098 261.472V295.948L378.129 292.507Z" fill="#263238"/>
<path d="M354.239 306.298V313.193L384.098 295.948L378.129 292.507L354.239 306.298Z" fill="#263238"/>
<path d="M354.239 255.723V221.248L384.098 204.002V238.478L354.239 255.723Z" fill="#7E57C2"/>
<path d="M378.129 235.038V207.457L384.098 204.002V238.478L378.129 235.038Z" fill="#263238"/>
<path d="M354.239 248.828V255.723L384.098 238.478L378.129 235.038L354.239 248.828Z" fill="#263238"/>
<path d="M354.239 198.254V163.778L384.098 146.533V181.024L354.239 198.254Z" fill="#7E57C2"/>
<path d="M378.129 177.569V149.988L384.098 146.533V181.024L378.129 177.569Z" fill="#263238"/>
<path d="M354.239 191.359V198.254L384.098 181.024L378.129 177.569L354.239 191.359Z" fill="#263238"/>
<path d="M396.697 346.14V311.664L426.571 294.433L426.557 328.909L396.697 346.14Z" fill="#7E57C2"/>
<path d="M420.588 325.454V297.874L426.572 294.433L426.557 328.909L420.588 325.454Z" fill="#263238"/>
<path d="M396.697 339.259V346.14L426.557 328.909L420.588 325.454L396.697 339.259Z" fill="#263238"/>
<path d="M396.697 288.685V254.194L426.571 236.964L426.557 271.44L396.697 288.685Z" fill="#7E57C2"/>
<path d="M420.588 267.999V240.404L426.572 236.964L426.557 271.44L420.588 267.999Z" fill="#263238"/>
<path d="M396.697 281.79V288.685L426.557 271.44L420.588 268L396.697 281.79Z" fill="#263238"/>
<path d="M396.697 231.216V196.74L426.571 179.495L426.557 213.985L396.697 231.216Z" fill="#7E57C2"/>
<path d="M420.588 210.53V182.949L426.572 179.495L426.557 213.985L420.588 210.53Z" fill="#263238"/>
<path d="M396.697 224.32V231.216L426.557 213.985L420.588 210.53L396.697 224.32Z" fill="#263238"/>
<path d="M396.697 173.746V139.27L426.571 122.04L426.557 156.516L396.697 173.746Z" fill="#7E57C2"/>
<path d="M420.588 153.061V125.48L426.572 122.04L426.557 156.516L420.588 153.061Z" fill="#263238"/>
<path d="M396.697 166.851V173.746L426.557 156.516L420.588 153.061L396.697 166.851Z" fill="#263238"/>
<path d="M225.847 251.695V217.219L201.957 203.429V237.905L225.847 251.695Z" fill="#7E57C2"/>
<path opacity="0.5" d="M225.847 251.695V217.219L201.957 203.429V237.905L225.847 251.695Z" fill="white"/>
<path d="M207.926 234.465L201.957 237.905V203.429L207.926 206.884V234.465Z" fill="#263238"/>
<path d="M225.847 244.8L207.926 234.465L201.957 237.905L225.847 251.695V244.8Z" fill="#263238"/>
<path d="M237.785 317.545C237.785 307.812 244.475 303.769 252.722 308.532C260.97 313.296 267.645 325.043 267.645 334.79V393.068L237.785 375.823V317.545Z" fill="#263238"/>
<path d="M267.645 334.79C267.645 325.043 260.97 313.281 252.722 308.532C250.623 307.202 248.181 306.512 245.695 306.548C244.331 308.825 243.661 311.452 243.769 314.104V372.382L267.645 386.173V334.79Z" fill="#455A64"/>
<path d="M267.645 334.79C267.645 325.043 260.97 313.281 252.722 308.532C250.623 307.202 248.181 306.512 245.695 306.548C244.331 308.825 243.661 311.452 243.769 314.104V372.382L267.645 386.173V334.79Z" fill="#7E57C2"/>
<path opacity="0.5" d="M267.645 334.79C267.645 325.043 260.97 313.281 252.722 308.532C250.623 307.202 248.181 306.512 245.695 306.548C244.331 308.825 243.661 311.452 243.769 314.104V372.382L267.645 386.173V334.79Z" fill="white"/>
<path d="M257.03 311.782C256.113 310.917 255.13 310.126 254.09 309.415V324.91L243.798 318.941V322.514L254.09 328.497V373.176L257.03 374.867V330.174L267.645 336.304V334.834C267.645 334.128 267.645 333.364 267.542 332.702L257.03 326.645V311.782Z" fill="#455A64"/>
<path d="M315.426 172.394V151.708L184.036 75.8614V96.5469L315.426 172.394Z" fill="#7E57C2"/>
<path opacity="0.5" d="M315.426 172.394V151.708L184.036 75.8614V96.5469L315.426 172.394Z" fill="white"/>
<path d="M315.426 172.394V151.708L446.816 75.8614V96.5469L315.426 172.394Z" fill="#7E57C2"/>
<path opacity="0.2" d="M315.426 172.394V151.708L446.816 75.8614V96.5469L315.426 172.394Z" fill="black"/>
<path d="M201.957 135.374C201.957 127.259 207.308 123.76 213.895 127.568C220.481 131.375 225.847 141.049 225.847 149.165V203.429L201.957 189.639V135.374Z" fill="#263238"/>
<path d="M213.895 127.553C212.474 126.701 210.872 126.198 209.22 126.083C208.31 127.906 207.866 129.927 207.926 131.964V186.228L225.848 196.519V149.15C225.848 141.035 220.496 131.361 213.895 127.553Z" fill="#7E57C2"/>
<path opacity="0.5" d="M213.895 127.553C212.474 126.701 210.872 126.198 209.22 126.083C208.31 127.906 207.866 129.927 207.926 131.964V186.228L225.848 196.519V149.15C225.848 141.035 220.496 131.361 213.895 127.553Z" fill="white"/>
<path d="M201.957 189.639L207.926 186.184L225.847 196.519V203.429L201.957 189.639Z" fill="#263238"/>
<path d="M237.785 159C237.785 149.253 244.475 145.225 252.722 149.988C260.97 154.751 267.645 166.498 267.645 176.245V227.57L237.785 210.324V159Z" fill="#263238"/>
<path d="M267.645 176.245C267.645 166.498 260.97 154.737 252.722 149.988C250.623 148.658 248.181 147.968 245.695 148.003C244.331 150.281 243.661 152.907 243.769 155.56V206.869L267.645 220.674V176.245Z" fill="#7E57C2"/>
<path opacity="0.5" d="M267.645 176.245C267.645 166.498 260.97 154.737 252.722 149.988C250.623 148.658 248.181 147.968 245.695 148.003C244.331 150.281 243.661 152.907 243.769 155.56V206.869L267.645 220.674V176.245Z" fill="white"/>
<path d="M243.769 206.869L237.785 210.324L267.645 227.569V220.674L243.769 206.869Z" fill="#263238"/>
<path d="M279.597 180.215C279.597 172.1 284.934 168.6 291.535 172.408C298.136 176.216 303.488 185.89 303.488 194.005V248.27L279.597 234.479V180.215Z" fill="#263238"/>
<path d="M291.535 172.394C290.114 171.544 288.512 171.04 286.86 170.923C285.948 172.746 285.504 174.767 285.566 176.804V231.069L303.488 241.36V193.991C303.488 185.875 298.136 176.201 291.535 172.394Z" fill="#7E57C2"/>
<path opacity="0.5" d="M291.535 172.394C290.114 171.544 288.512 171.04 286.86 170.923C285.948 172.746 285.504 174.767 285.566 176.804V231.069L303.488 241.36V193.991C303.488 185.875 298.136 176.201 291.535 172.394Z" fill="white"/>
<path d="M285.566 231.01L279.597 234.465L303.488 248.255V241.36L285.566 231.01Z" fill="#263238"/>
<path d="M279.597 338.745C279.597 330.629 284.934 327.13 291.535 330.938C298.136 334.746 303.488 344.42 303.488 352.535V413.753L279.597 399.963V338.745Z" fill="#263238"/>
<path d="M291.535 330.938C290.114 330.088 288.512 329.585 286.86 329.468C285.951 331.291 285.506 333.312 285.566 335.349V396.552L303.488 406.843V352.447C303.488 344.42 298.136 334.746 291.535 330.938Z" fill="#7E57C2"/>
<path opacity="0.5" d="M291.535 330.938C290.114 330.088 288.512 329.585 286.86 329.468C285.951 331.291 285.506 333.312 285.566 335.349V396.552L303.488 406.843V352.447C303.488 344.42 298.136 334.746 291.535 330.938Z" fill="white"/>
<path d="M279.597 399.963V379.278L303.488 393.068V413.753L279.597 399.963Z" fill="#37474F"/>
<path d="M279.597 379.278L285.566 375.823L303.473 386.173L303.488 393.068L279.597 379.278Z" fill="#263238"/>
<path d="M201.957 293.919C201.957 285.803 207.308 282.304 213.895 286.112C220.481 289.92 225.847 299.594 225.847 307.709V368.927L201.957 355.167V293.919Z" fill="#263238"/>
<path d="M213.895 286.068C212.471 285.223 210.871 284.72 209.22 284.598C208.31 286.422 207.866 288.442 207.926 290.479V351.697L225.848 361.988V307.592C225.848 299.579 220.496 289.905 213.895 286.068Z" fill="#7E57C2"/>
<path opacity="0.5" d="M213.895 286.068C212.471 285.223 210.871 284.72 209.22 284.598C208.31 286.422 207.866 288.442 207.926 290.479V351.697L225.848 361.988V307.592C225.848 299.579 220.496 289.905 213.895 286.068Z" fill="white"/>
<path d="M225.847 368.927V348.242L201.957 334.452V355.137L225.847 368.927Z" fill="#37474F"/>
<path d="M201.957 334.452L207.926 330.997L225.847 341.347V348.242L201.957 334.452Z" fill="#263238"/>
<path d="M237.785 375.823V368.927L267.645 386.173V393.068L237.785 375.823Z" fill="#37474F"/>
<path d="M237.785 368.927L243.769 365.487L267.645 379.278V386.173L237.785 368.927Z" fill="#263238"/>
<path d="M315.426 151.708L446.816 75.8614L315.426 0L184.036 75.8614L315.426 151.708Z" fill="#7E57C2"/>
<path opacity="0.7" d="M315.426 151.708L446.816 75.8614L315.426 0L184.036 75.8614L315.426 151.708Z" fill="white"/>
<path d="M315.426 137.918L422.925 75.8614L315.426 13.7903L207.926 75.8614L315.426 137.918Z" fill="#7E57C2"/>
<path d="M315.426 13.7903V34.4905L225.848 86.1968L207.926 75.8614L315.426 13.7903Z" fill="#7E57C2"/>
<path opacity="0.2" d="M315.426 13.7903V34.4905L225.848 86.1968L207.926 75.8614L315.426 13.7903Z" fill="black"/>
<path d="M315.426 13.7903L422.925 75.8614L405.004 86.1968L315.426 34.4905V13.7903Z" fill="#7E57C2"/>
<path opacity="0.5" d="M315.426 13.7903L422.925 75.8614L405.004 86.1968L315.426 34.4905V13.7903Z" fill="white"/>
<path d="M297.504 31.0355L267.645 48.2808L309.457 72.4065L339.316 55.1759L297.504 31.0355Z" fill="#455A64"/>
<path d="M267.645 48.2808V68.9663L309.457 93.0919V72.4065L267.645 48.2808Z" fill="#37474F"/>
<path d="M339.316 55.1759V75.8614L309.457 93.0919V72.4065L339.316 55.1759Z" fill="#263238"/>
<path d="M287.698 42.6059C282.273 45.7374 282.273 50.8095 287.698 53.941C290.739 55.4854 294.101 56.2904 297.512 56.2904C300.922 56.2904 304.284 55.4854 307.325 53.941C312.735 50.8095 312.735 45.7374 307.325 42.6059C304.284 41.0615 300.922 40.2565 297.512 40.2565C294.101 40.2565 290.739 41.0615 287.698 42.6059Z" fill="#37474F"/>
<path d="M292.917 45.8403C290.374 47.1781 290.374 49.3687 292.917 50.7066C294.357 51.375 295.925 51.7212 297.512 51.7212C299.099 51.7212 300.667 51.375 302.106 50.7066C304.635 49.3687 304.635 47.1781 302.106 45.8403C300.667 45.1719 299.099 44.8256 297.512 44.8256C295.925 44.8256 294.357 45.1719 292.917 45.8403Z" fill="#263238"/>
<path d="M318.689 73.9649L324.658 77.4051V91.2101" stroke="#455A64" stroke-width="2" stroke-linecap="round" stroke-linejoin="round"/>
<path d="M327.364 68.9662L333.332 72.4065V86.1968" stroke="#455A64" stroke-width="2" stroke-linecap="round" stroke-linejoin="round"/>
</svg>
