<svg width="131" height="50" viewBox="0 0 131 50" fill="none" xmlns="http://www.w3.org/2000/svg">
<path d="M128.837 11.7524C129.456 9.94605 128.49 7.98098 126.679 7.36325C124.868 6.74552 122.898 7.70905 122.278 9.51536L114.02 33.5988C113.401 35.4051 114.367 37.3702 116.178 37.9879C117.989 38.6056 119.959 37.6421 120.579 35.8358L128.837 11.7524Z" fill="white"/>
<path d="M115.64 44.4603C114.349 45.5928 112.318 44.7438 112.222 43.0322L112.085 40.588C112 39.0729 113.535 37.9918 114.938 38.5784L116.918 39.4055C118.321 39.9918 118.625 41.8408 117.482 42.8435L115.64 44.4603Z" fill="white"/>
<path d="M39.6331 20.5479C39.3254 20.5479 39.0984 20.4822 38.9518 20.3507C38.82 20.2045 38.754 19.9781 38.754 19.6712V6.08219C38.754 5.77534 38.82 5.55616 38.9518 5.42465C39.0984 5.27852 39.3254 5.20547 39.6331 5.20547H44.3358C46.6066 5.20547 48.3426 5.8703 49.5441 7.2C50.7599 8.51506 51.3681 10.4073 51.3681 12.8767C51.3681 15.3461 50.7599 17.2456 49.5441 18.5753C48.3426 19.8904 46.6066 20.5479 44.3358 20.5479H39.6331ZM44.3358 17.6767C45.5078 17.6767 46.3944 17.2676 46.9949 16.4493C47.5955 15.6311 47.8959 14.4402 47.8959 12.8767C47.8959 11.3132 47.5955 10.1224 46.9949 9.3041C46.3944 8.48585 45.5078 8.07671 44.3358 8.07671H42.1603V17.6767H44.3358ZM59.0224 20.7233C57.0886 20.7233 55.6454 20.2119 54.6932 19.189C53.7555 18.1516 53.2868 16.7196 53.2868 14.8931C53.2868 12.8329 53.7555 11.3205 54.6932 10.3562C55.6454 9.39178 56.9567 8.90958 58.6269 8.90958C60.2531 8.90958 61.447 9.43561 62.2089 10.4877C62.9853 11.5397 63.3736 12.8986 63.3736 14.5644C63.3736 14.7397 63.2198 15.0027 62.9121 15.3534C62.6192 15.6895 62.3995 15.8575 62.2529 15.8575H56.6491C56.7222 16.6904 56.9715 17.2822 57.3963 17.6329C57.821 17.9836 58.4143 18.1589 59.1763 18.1589C59.5866 18.1589 59.9602 18.1151 60.297 18.0274C60.6339 17.9251 60.9855 17.8009 61.3519 17.6548C61.5864 17.5379 61.7474 17.4794 61.8353 17.4794C61.9819 17.4794 62.143 17.589 62.3188 17.8082C62.5094 18.0128 62.6632 18.2539 62.7803 18.5315C62.9121 18.7945 62.9781 18.9991 62.9781 19.1452C62.9781 19.4813 62.7511 19.7735 62.2968 20.0219C61.8425 20.2557 61.3007 20.4311 60.6706 20.5479C60.0405 20.6648 59.4911 20.7233 59.0224 20.7233ZM60.2091 13.6877C60.2091 13.0155 60.0773 12.4822 59.8136 12.0877C59.5499 11.6785 59.1543 11.474 58.6269 11.474C57.5429 11.474 56.8836 12.2119 56.6491 13.6877H60.2091ZM68.9839 20.5918C68.2807 20.5918 67.8704 20.4383 67.7533 20.1315L64.2592 9.9178C64.2005 9.71325 64.1713 9.58174 64.1713 9.52328C64.1713 9.20181 64.618 9.04109 65.5118 9.04109H66.237C66.955 9.04109 67.365 9.19452 67.4676 9.50136L68.5664 12.9644C68.9472 14.1333 69.2185 15.2877 69.3795 16.4274H69.4674C69.5993 15.3753 69.8702 14.221 70.2805 12.9644L71.3793 9.50136C71.482 9.19452 71.8919 9.04109 72.6099 9.04109H73.1593C74.0383 9.04109 74.4778 9.20181 74.4778 9.52328C74.4778 9.62558 74.4559 9.75708 74.4119 9.9178L70.9178 20.1315C70.8151 20.4383 70.4051 20.5918 69.6872 20.5918H68.9839ZM42.7316 45.7233C41.6916 45.7233 40.783 45.6209 40.0067 45.4164C39.2303 45.212 38.6222 44.949 38.1827 44.6274C37.7723 44.3496 37.5674 44.0722 37.5674 43.7945C37.5674 43.5753 37.648 43.3123 37.8091 43.0055C37.9701 42.6986 38.1607 42.4284 38.3805 42.1945C38.6002 41.9606 38.7832 41.8438 38.9298 41.8438C39.0177 41.8438 39.2227 41.9315 39.5452 42.1068C40.0139 42.3407 40.439 42.5233 40.8197 42.6548C41.2005 42.7863 41.6476 42.852 42.1603 42.852C42.7316 42.852 43.2151 42.7425 43.6107 42.5233C44.021 42.2894 44.226 41.8877 44.226 41.3178C44.226 40.8503 44.0354 40.4849 43.6546 40.2219C43.2882 39.9442 42.6877 39.6373 41.8526 39.3014L40.8417 38.863C39.9187 38.4246 39.1936 37.8839 38.6661 37.2411C38.1387 36.5836 37.875 35.6558 37.875 34.4575C37.875 33.4639 38.1167 32.6383 38.6002 31.9808C39.0984 31.3087 39.7429 30.8192 40.5341 30.5123C41.3252 30.1908 42.175 30.0301 43.0832 30.0301C43.8304 30.0301 44.5044 30.1105 45.105 30.2712C45.7203 30.4174 46.2038 30.6146 46.5554 30.863C46.8778 31.0968 47.0389 31.3306 47.0389 31.5644C47.0389 31.7689 46.9729 32.0246 46.8411 32.3315C46.7092 32.6383 46.5482 32.9087 46.3576 33.1425C46.167 33.3616 45.9912 33.4712 45.8302 33.4712C45.7571 33.4712 45.6324 33.4347 45.4566 33.3616C45.2956 33.2886 45.1562 33.2301 45.0391 33.1863C44.5117 33.011 43.9623 32.9233 43.3909 32.9233C42.629 32.9233 42.0943 33.0475 41.7867 33.2959C41.4938 33.5443 41.3472 33.8292 41.3472 34.1507C41.3472 34.5305 41.4498 34.8449 41.6548 35.0931C41.8598 35.3414 42.1091 35.5462 42.402 35.7068C42.6949 35.8531 43.1272 36.0503 43.6986 36.2986C44.5336 36.6493 45.2149 36.9853 45.7423 37.3068C46.2697 37.6137 46.724 38.0668 47.1048 38.6657C47.5003 39.2503 47.6981 40.0027 47.6981 40.9233C47.6981 42.0483 47.4564 42.9688 46.9729 43.6849C46.5042 44.401 45.8961 44.9195 45.149 45.2411C44.4018 45.5627 43.5959 45.7233 42.7316 45.7233ZM54.5325 45.7233C52.6574 45.7233 51.2654 45.2483 50.3572 44.2986C49.449 43.3342 48.9947 41.8657 48.9947 39.8931C48.9947 37.9058 49.449 36.4154 50.3572 35.4219C51.2802 34.4137 52.7086 33.9096 54.6424 33.9096C55.5362 33.9096 56.3637 34.0484 57.1257 34.326C57.902 34.589 58.2904 34.9544 58.2904 35.4219C58.2904 35.6411 58.1366 35.977 57.8289 36.4301C57.536 36.8832 57.3015 37.1096 57.1257 37.1096C57.067 37.1096 56.9351 37.0586 56.7301 36.9562C56.4372 36.8099 56.144 36.6931 55.8511 36.6055C55.5726 36.5178 55.2286 36.474 54.8182 36.474C53.954 36.474 53.3239 36.7442 52.9283 37.2849C52.5328 37.8257 52.335 38.6657 52.335 39.8055C52.335 40.9452 52.518 41.7928 52.8844 42.3479C53.2652 42.8887 53.8661 43.1589 54.6864 43.1589C55.0672 43.1589 55.4044 43.1223 55.6973 43.0493C56.0049 42.9616 56.2539 42.8812 56.4444 42.8082C56.6494 42.7353 56.7813 42.6839 56.84 42.6548C57.0745 42.5671 57.2064 42.5233 57.2356 42.5233C57.3822 42.5233 57.5432 42.6329 57.719 42.852C57.9096 43.0565 58.0634 43.2976 58.1805 43.5753C58.3124 43.8383 58.3783 44.0428 58.3783 44.189C58.3783 44.5544 58.1293 44.8538 57.6311 45.0877C57.1477 45.3216 56.5983 45.4822 55.9829 45.5699C55.3676 45.6722 54.8842 45.7233 54.5325 45.7233ZM61.5067 45.5918C60.6277 45.5918 60.1878 45.3579 60.1878 44.8904V29.7233C60.1878 29.2557 60.6277 29.0219 61.5067 29.0219H62.122C63.0011 29.0219 63.4406 29.2557 63.4406 29.7233V35.4C63.8066 34.9616 64.2537 34.6038 64.7811 34.326C65.3229 34.0484 65.9091 33.9096 66.5392 33.9096C67.6524 33.9096 68.4802 34.2018 69.0224 34.7863C69.579 35.3562 69.8575 36.2476 69.8575 37.4603V44.8904C69.8575 45.3579 69.418 45.5918 68.5389 45.5918H67.9236C67.0446 45.5918 66.6051 45.3579 66.6051 44.8904V37.9425C66.6051 37.0366 66.136 36.5836 65.1983 36.5836C64.8031 36.5836 64.4515 36.7151 64.1438 36.9781C63.8506 37.2264 63.6164 37.5188 63.4406 37.8548V44.8904C63.4406 45.3579 63.0011 45.5918 62.122 45.5918H61.5067ZM77.4264 45.7233C75.6831 45.7233 74.357 45.2192 73.4488 44.2109C72.5406 43.188 72.0863 41.7195 72.0863 39.8055C72.0863 37.8914 72.5406 36.4301 73.4488 35.4219C74.357 34.4137 75.6831 33.9096 77.4264 33.9096C79.1697 33.9096 80.4882 34.4137 81.382 35.4219C82.2902 36.4301 82.7445 37.8914 82.7445 39.8055C82.7445 41.7195 82.2902 43.188 81.382 44.2109C80.4882 45.2192 79.1697 45.7233 77.4264 45.7233ZM77.4264 43.1589C78.1148 43.1589 78.6203 42.8812 78.9427 42.326C79.2795 41.7562 79.4481 40.9161 79.4481 39.8055C79.4481 38.6949 79.2795 37.862 78.9427 37.3068C78.6203 36.7517 78.1148 36.474 77.4264 36.474C76.7379 36.474 76.2249 36.7517 75.8881 37.3068C75.5512 37.862 75.3826 38.6949 75.3826 39.8055C75.3826 42.0411 76.0639 43.1589 77.4264 43.1589ZM89.9381 45.7233C88.1944 45.7233 86.8687 45.2192 85.9605 44.2109C85.0519 43.188 84.598 41.7195 84.598 39.8055C84.598 37.8914 85.0519 36.4301 85.9605 35.4219C86.8687 34.4137 88.1944 33.9096 89.9381 33.9096C91.6814 33.9096 92.9999 34.4137 93.8937 35.4219C94.8019 36.4301 95.2562 37.8914 95.2562 39.8055C95.2562 41.7195 94.8019 43.188 93.8937 44.2109C92.9999 45.2192 91.6814 45.7233 89.9381 45.7233ZM89.9381 43.1589C90.6265 43.1589 91.132 42.8812 91.4544 42.326C91.7912 41.7562 91.9598 40.9161 91.9598 39.8055C91.9598 38.6949 91.7912 37.862 91.4544 37.3068C91.132 36.7517 90.6265 36.474 89.9381 36.474C89.2493 36.474 88.7366 36.7517 88.3998 37.3068C88.0626 37.862 87.8943 38.6949 87.8943 39.8055C87.8943 42.0411 88.5756 43.1589 89.9381 43.1589ZM100.779 45.7233C98.6404 45.7233 97.5708 44.5397 97.5708 42.1726V29.7233C97.5708 29.2557 98.0103 29.0219 98.8894 29.0219H99.5047C100.384 29.0219 100.823 29.2557 100.823 29.7233V42.2164C100.823 42.5524 100.882 42.7935 100.999 42.9397C101.131 43.086 101.336 43.1589 101.614 43.1589C101.687 43.1589 101.783 43.1442 101.9 43.1151C102.032 43.086 102.135 43.0712 102.208 43.0712C102.34 43.0712 102.457 43.1808 102.559 43.4C102.662 43.6192 102.742 43.8603 102.801 44.1233C102.86 44.3863 102.889 44.5616 102.889 44.6493C102.889 45.3654 102.186 45.7233 100.779 45.7233ZM106.974 45.7233C106.065 45.7233 105.23 45.5846 104.468 45.3068C103.706 45.0291 103.326 44.6712 103.326 44.2329C103.326 43.9407 103.465 43.5901 103.743 43.1808C104.022 42.7572 104.271 42.5452 104.49 42.5452C104.607 42.5452 104.769 42.6038 104.974 42.7205C105.282 42.852 105.56 42.9616 105.809 43.0493C106.073 43.1223 106.373 43.1589 106.71 43.1589C107.149 43.1589 107.479 43.0784 107.699 42.9178C107.933 42.7572 108.05 42.5305 108.05 42.2383C108.05 41.9462 107.926 41.7195 107.677 41.5589C107.428 41.3983 106.959 41.1716 106.27 40.8794C105.758 40.6603 105.318 40.4411 104.952 40.2219C104.586 39.988 104.263 39.652 103.985 39.2137C103.721 38.7606 103.589 38.1907 103.589 37.5041C103.589 36.3791 103.948 35.5024 104.666 34.874C105.384 34.2311 106.358 33.9096 107.589 33.9096C108.365 33.9096 109.105 34.0192 109.809 34.2383C110.526 34.4575 110.885 34.7716 110.885 35.1808C110.885 35.4586 110.775 35.8164 110.556 36.2548C110.336 36.6931 110.131 36.9123 109.94 36.9123C109.882 36.9123 109.662 36.8394 109.281 36.6931C108.9 36.5325 108.468 36.452 107.985 36.452C107.208 36.452 106.82 36.7223 106.82 37.263C106.82 37.5846 106.952 37.8329 107.215 38.0082C107.479 38.1688 107.955 38.3736 108.644 38.6219C109.406 38.8996 110.035 39.2866 110.534 39.7836C111.032 40.2657 111.281 40.9962 111.281 41.9753C111.281 43.1151 110.9 44.0284 110.138 44.7151C109.376 45.3873 108.321 45.7233 106.974 45.7233Z" fill="white"/>
<path d="M31.1948 5.13699H3.77706C1.69105 5.13699 0 6.82359 0 8.90412V41.9058C0 43.9864 1.69105 45.673 3.77706 45.673H31.1948C33.2808 45.673 34.9718 43.9864 34.9718 41.9058V8.90412C34.9718 6.82359 33.2808 5.13699 31.1948 5.13699Z" fill="white"/>
<path d="M27.8701 9.40466H7.07607C5.94504 9.40466 5.02817 10.3191 5.02817 11.4472V11.4472C5.02817 12.5752 5.94504 13.4897 7.07607 13.4897H27.8701C29.0012 13.4897 29.918 12.5752 29.918 11.4472C29.918 10.3191 29.0012 9.40466 27.8701 9.40466Z" fill="white"/>
<path d="M27.8701 15.3763H7.07607C5.94504 15.3763 5.02817 16.2908 5.02817 17.4189V17.4189C5.02817 18.5469 5.94504 19.4614 7.07607 19.4614H27.8701C29.0012 19.4614 29.918 18.5469 29.918 17.4189C29.918 16.2908 29.0012 15.3763 27.8701 15.3763Z" fill="white"/>
<path d="M27.8701 21.3481H7.07607C5.94504 21.3481 5.02817 22.2625 5.02817 23.3906V23.3906C5.02817 24.5186 5.94504 25.4331 7.07607 25.4331H27.8701C29.0012 25.4331 29.918 24.5186 29.918 23.3906C29.918 22.2625 29.0012 21.3481 27.8701 21.3481Z" fill="white"/>
</svg>
