<svg width="276" height="87" viewBox="0 0 276 87" fill="none" xmlns="http://www.w3.org/2000/svg">
<path d="M261.57 9.38537C262.895 5.51343 267.109 3.44803 270.983 4.77218C274.857 6.09634 276.924 10.3086 275.599 14.1806L257.934 65.8054C256.609 69.6773 252.395 71.7427 248.521 70.4185C244.646 69.0944 242.58 64.8821 243.905 61.0102L261.57 9.38537Z" fill="white"/>
<path d="M247.37 84.2926C244.609 86.72 240.263 84.9006 240.058 81.2314L239.765 75.9924C239.584 72.7445 242.866 70.4272 245.868 71.6841L250.103 73.4571C253.105 74.714 253.755 78.6778 251.311 80.8266L247.37 84.2926Z" fill="white"/>
<path d="M84.7805 33.0346C84.1224 33.0346 83.6367 32.8937 83.3233 32.6118C83.0412 32.2986 82.9002 31.8131 82.9002 31.1553V2.02612C82.9002 1.36837 83.0412 0.898539 83.3233 0.616644C83.6367 0.303427 84.1224 0.146818 84.7805 0.146818H94.8404C99.698 0.146818 103.412 1.57196 105.982 4.42223C108.583 7.24119 109.883 11.2974 109.883 16.5907C109.883 21.8841 108.583 25.9559 105.982 28.8062C103.412 31.6251 99.698 33.0346 94.8404 33.0346H84.7805ZM94.8404 26.8799C97.3476 26.8799 99.2436 26.0029 100.529 24.2489C101.813 22.4949 102.456 19.9421 102.456 16.5907C102.456 13.2393 101.813 10.6866 100.529 8.93256C99.2436 7.17855 97.3476 6.30154 94.8404 6.30154H90.1866V26.8799H94.8404Z" fill="white"/>
<path d="M126.257 33.4105C122.12 33.4105 119.033 32.3142 116.996 30.1217C114.991 27.8979 113.988 24.8283 113.988 20.9131C113.988 16.4968 114.991 13.255 116.996 11.1877C119.033 9.12049 121.838 8.08688 125.411 8.08688C128.89 8.08688 131.444 9.21446 133.073 11.4696C134.734 13.7248 135.565 16.6377 135.565 20.2084C135.565 20.5842 135.236 21.148 134.578 21.8998C133.951 22.6202 133.481 22.9804 133.167 22.9804H121.18C121.337 24.7657 121.87 26.0342 122.778 26.7859C123.687 27.5377 124.956 27.9135 126.586 27.9135C127.464 27.9135 128.263 27.8196 128.984 27.6316C129.704 27.4124 130.457 27.1461 131.24 26.8329C131.741 26.5824 132.086 26.4571 132.274 26.4571C132.588 26.4571 132.932 26.692 133.308 27.1618C133.716 27.6003 134.045 28.1171 134.296 28.7122C134.578 29.276 134.719 29.7145 134.719 30.0277C134.719 30.7481 134.233 31.3746 133.261 31.907C132.29 32.4082 131.13 32.7841 129.783 33.0346C128.435 33.2852 127.26 33.4105 126.257 33.4105ZM128.796 18.3291C128.796 16.8883 128.514 15.745 127.949 14.8994C127.385 14.0223 126.539 13.5838 125.411 13.5838C123.092 13.5838 121.682 15.1656 121.18 18.3291H128.796Z" fill="white"/>
<path d="M147.566 33.1286C146.062 33.1286 145.184 32.7997 144.934 32.142L137.459 10.2481C137.334 9.80957 137.271 9.52768 137.271 9.40239C137.271 8.71331 138.227 8.36877 140.139 8.36877H141.69C143.226 8.36877 144.103 8.69765 144.322 9.35541L146.673 16.7787C147.488 19.2844 148.067 21.7588 148.412 24.2019H148.6C148.882 21.9467 149.462 19.4723 150.34 16.7787L152.69 9.35541C152.909 8.69765 153.787 8.36877 155.323 8.36877H156.498C158.378 8.36877 159.318 8.71331 159.318 9.40239C159.318 9.62164 159.271 9.90354 159.177 10.2481L151.703 32.142C151.483 32.7997 150.606 33.1286 149.07 33.1286H147.566Z" fill="white"/>
<path d="M91.4088 87C89.1837 87 87.2407 86.7807 85.5797 86.3422C83.9187 85.9037 82.6181 85.3399 81.678 84.6509C80.8005 84.0558 80.3617 83.4606 80.3617 82.8655C80.3617 82.3957 80.5341 81.8319 80.8788 81.1742C81.2235 80.5164 81.631 79.937 82.101 79.4358C82.5711 78.9347 82.9629 78.6841 83.2763 78.6841C83.4643 78.6841 83.903 78.872 84.5925 79.2479C85.5954 79.749 86.5042 80.1405 87.319 80.4224C88.1338 80.7043 89.0897 80.8453 90.1866 80.8453C91.4088 80.8453 92.443 80.6104 93.2892 80.1405C94.1667 79.6394 94.6054 78.778 94.6054 77.5565C94.6054 76.5542 94.198 75.7712 93.3832 75.2074C92.5997 74.6123 91.3148 73.9545 89.5284 73.2341L87.366 72.2944C85.3917 71.3548 83.8404 70.1959 82.7122 68.8177C81.5839 67.4083 81.0198 65.4193 81.0198 62.8509C81.0198 60.7211 81.5369 58.9514 82.5711 57.5419C83.6367 56.1011 85.0156 55.0518 86.7079 54.3941C88.4002 53.705 90.2179 53.3605 92.1609 53.3605C93.7592 53.3605 95.2009 53.5327 96.4858 53.8773C97.802 54.1905 98.8362 54.6133 99.5883 55.1458C100.278 55.6469 100.623 56.1481 100.623 56.6492C100.623 57.0878 100.482 57.6359 100.199 58.2936C99.9174 58.9514 99.5727 59.5308 99.1653 60.032C98.7579 60.5018 98.3818 60.7367 98.0371 60.7367C97.8804 60.7367 97.614 60.6584 97.2379 60.5018C96.8932 60.3452 96.5954 60.2199 96.3447 60.126C95.2165 59.7501 94.0413 59.5622 92.8191 59.5622C91.1894 59.5622 90.0455 59.8284 89.3874 60.3609C88.7606 60.8933 88.4472 61.5041 88.4472 62.1932C88.4472 63.0076 88.6666 63.681 89.1054 64.2134C89.5441 64.7459 90.0769 65.1844 90.7037 65.529C91.3305 65.8422 92.255 66.265 93.4772 66.7975C95.2635 67.5492 96.7208 68.2696 97.849 68.9587C98.9772 69.6164 99.9488 70.5874 100.764 71.8716C101.61 73.1245 102.033 74.7375 102.033 76.7108C102.033 79.1226 101.516 81.0958 100.482 82.6306C99.4787 84.1654 98.1781 85.2773 96.5798 85.9664C94.9815 86.6555 93.2578 87 91.4088 87Z" fill="white"/>
<path d="M116.653 87C112.641 87 109.664 85.982 107.721 83.9461C105.778 81.8789 104.806 78.7311 104.806 74.5026C104.806 70.2429 105.778 67.0481 107.721 64.9182C109.695 62.757 112.751 61.6764 116.888 61.6764C118.799 61.6764 120.57 61.9739 122.2 62.569C123.861 63.1328 124.691 63.9159 124.691 64.9182C124.691 65.388 124.362 66.1084 123.704 67.0794C123.077 68.0504 122.576 68.5358 122.2 68.5358C122.074 68.5358 121.792 68.4262 121.353 68.207C120.727 67.8937 120.1 67.6432 119.473 67.4552C118.878 67.2673 118.141 67.1733 117.264 67.1733C115.415 67.1733 114.067 67.7528 113.221 68.9117C112.375 70.0706 111.952 71.8716 111.952 74.3147C111.952 76.7578 112.343 78.5745 113.127 79.7647C113.942 80.9236 115.227 81.503 116.982 81.503C117.796 81.503 118.517 81.4247 119.144 81.2681C119.802 81.0802 120.335 80.9079 120.742 80.7513C121.181 80.5947 121.463 80.4851 121.589 80.4224C122.09 80.2345 122.372 80.1405 122.435 80.1405C122.748 80.1405 123.093 80.3755 123.469 80.8453C123.876 81.2838 124.205 81.8006 124.456 82.3957C124.738 82.9595 124.879 83.398 124.879 83.7112C124.879 84.4943 124.346 85.1364 123.281 85.6375C122.247 86.1386 121.071 86.4832 119.755 86.6711C118.439 86.8904 117.405 87 116.653 87Z" fill="white"/>
<path d="M131.571 86.7181C129.691 86.7181 128.75 86.217 128.75 85.2147V52.7027C128.75 51.7004 129.691 51.1993 131.571 51.1993H132.887C134.768 51.1993 135.708 51.7004 135.708 52.7027V64.8712C136.491 63.9315 137.447 63.1642 138.575 62.569C139.735 61.9739 140.988 61.6764 142.336 61.6764C144.718 61.6764 146.488 62.3028 147.648 63.5557C148.839 64.7772 149.434 66.6879 149.434 69.2876V85.2147C149.434 86.217 148.494 86.7181 146.614 86.7181H145.298C143.417 86.7181 142.477 86.217 142.477 85.2147V70.3212C142.477 68.3792 141.474 67.4083 139.468 67.4083C138.622 67.4083 137.87 67.6902 137.212 68.2539C136.585 68.7864 136.084 69.4128 135.708 70.1332V85.2147C135.708 86.217 134.768 86.7181 132.887 86.7181H131.571Z" fill="white"/>
<path d="M165.626 87C161.896 87 159.06 85.9194 157.117 83.7582C155.174 81.5657 154.202 78.4178 154.202 74.3147C154.202 70.2115 155.174 67.0794 157.117 64.9182C159.06 62.757 161.896 61.6764 165.626 61.6764C169.355 61.6764 172.175 62.757 174.087 64.9182C176.03 67.0794 177.002 70.2115 177.002 74.3147C177.002 78.4178 176.03 81.5657 174.087 83.7582C172.175 85.9194 169.355 87 165.626 87ZM165.626 81.503C167.099 81.503 168.18 80.9079 168.869 79.7177C169.59 78.4962 169.95 76.6951 169.95 74.3147C169.95 71.9342 169.59 70.1489 168.869 68.9587C168.18 67.7685 167.099 67.1733 165.626 67.1733C164.153 67.1733 163.056 67.7685 162.335 68.9587C161.614 70.1489 161.254 71.9342 161.254 74.3147C161.254 79.1069 162.711 81.503 165.626 81.503Z" fill="white"/>
<path d="M192.389 87C188.66 87 185.824 85.9194 183.881 83.7582C181.938 81.5657 180.966 78.4178 180.966 74.3147C180.966 70.2115 181.938 67.0794 183.881 64.9182C185.824 62.757 188.66 61.6764 192.389 61.6764C196.119 61.6764 198.939 62.757 200.851 64.9182C202.794 67.0794 203.766 70.2115 203.766 74.3147C203.766 78.4178 202.794 81.5657 200.851 83.7582C198.939 85.9194 196.119 87 192.389 87ZM192.389 81.503C193.862 81.503 194.944 80.9079 195.633 79.7177C196.354 78.4962 196.714 76.6951 196.714 74.3147C196.714 71.9342 196.354 70.1489 195.633 68.9587C194.944 67.7685 193.862 67.1733 192.389 67.1733C190.916 67.1733 189.82 67.7685 189.099 68.9587C188.378 70.1489 188.018 71.9342 188.018 74.3147C188.018 79.1069 189.475 81.503 192.389 81.503Z" fill="white"/>
<path d="M215.581 87C211.005 87 208.717 84.4629 208.717 79.3888V52.7027C208.717 51.7004 209.657 51.1993 211.538 51.1993H212.854C214.734 51.1993 215.675 51.7004 215.675 52.7027V79.4828C215.675 80.2032 215.8 80.72 216.051 81.0332C216.333 81.3464 216.771 81.503 217.367 81.503C217.524 81.503 217.727 81.4717 217.978 81.4091C218.26 81.3464 218.479 81.3151 218.636 81.3151C218.918 81.3151 219.169 81.55 219.388 82.0198C219.608 82.4897 219.78 83.0065 219.905 83.5703C220.031 84.1341 220.093 84.5099 220.093 84.6979C220.093 86.2326 218.589 87 215.581 87Z" fill="white"/>
<path d="M228.831 87C226.888 87 225.102 86.7024 223.472 86.1073C221.843 85.5122 221.028 84.7448 221.028 83.8052C221.028 83.1787 221.325 82.427 221.921 81.55C222.516 80.6417 223.049 80.1875 223.519 80.1875C223.77 80.1875 224.115 80.3128 224.553 80.5634C225.212 80.8453 225.807 81.0802 226.34 81.2681C226.904 81.4247 227.546 81.503 228.267 81.503C229.207 81.503 229.912 81.3308 230.383 80.9862C230.884 80.6417 231.135 80.1562 231.135 79.5298C231.135 78.9033 230.868 78.4178 230.335 78.0733C229.803 77.7288 228.8 77.2433 227.327 76.6168C226.23 76.147 225.29 75.6772 224.506 75.2074C223.723 74.7062 223.033 73.9858 222.438 73.0462C221.874 72.0752 221.592 70.8537 221.592 69.3815C221.592 66.9698 222.36 65.0905 223.895 63.7436C225.431 62.3655 227.515 61.6764 230.147 61.6764C231.808 61.6764 233.391 61.9113 234.895 62.3811C236.431 62.8509 237.199 63.5244 237.199 64.4014C237.199 64.9965 236.964 65.7639 236.494 66.7035C236.024 67.6432 235.585 68.113 235.177 68.113C235.052 68.113 234.582 67.9564 233.767 67.6432C232.952 67.2986 232.028 67.1264 230.994 67.1264C229.333 67.1264 228.502 67.7058 228.502 68.8647C228.502 69.5538 228.784 70.0863 229.348 70.4621C229.912 70.8067 230.931 71.2452 232.404 71.7776C234.034 72.3727 235.381 73.2028 236.447 74.2677C237.512 75.3013 238.045 76.8674 238.045 78.966C238.045 81.4091 237.23 83.3667 235.6 84.8388C233.971 86.2796 231.714 87 228.831 87Z" fill="white"/>
<path d="M0 8.07513C0 3.61536 3.61738 0 8.07965 0H66.7299C71.1922 0 74.8096 3.61536 74.8096 8.07513V78.8171C74.8096 83.2769 71.1922 86.8922 66.7299 86.8922H8.07965C3.61739 86.8922 0 83.2769 0 78.8171V8.07513Z" fill="white"/>
<path d="M10.7557 13.5264C10.7559 11.1083 12.7173 9.14818 15.1367 9.1483L59.6181 9.15059C62.0375 9.15071 63.9987 11.111 63.9986 13.5291C63.9985 15.9472 62.0371 17.9073 59.6176 17.9072L15.1363 17.9049C12.7168 17.9048 10.7556 15.9444 10.7557 13.5264Z" fill="white"/>
<path d="M10.7557 26.3272C10.7559 23.9091 12.7173 21.949 15.1367 21.9491L59.6181 21.9514C62.0375 21.9515 63.9987 23.9118 63.9986 26.3299C63.9985 28.748 62.0371 30.7081 59.6176 30.708L15.1363 30.7057C12.7168 30.7056 10.7556 28.7452 10.7557 26.3272Z" fill="white"/>
<path d="M10.7557 39.128C10.7559 36.7099 12.7173 34.7498 15.1367 34.7499L59.6181 34.7522C62.0375 34.7523 63.9987 36.7127 63.9986 39.1307C63.9985 41.5488 62.0371 43.5089 59.6176 43.5088L15.1362 43.5065C12.7168 43.5064 10.7556 41.5461 10.7557 39.128Z" fill="white"/>
</svg>
