<svg width="379" height="146" viewBox="0 0 379 146" fill="none" xmlns="http://www.w3.org/2000/svg">
<rect x="359.379" y="18.2347" width="20.1863" height="94.5087" rx="10.0932" transform="rotate(18.88 359.379 18.2347)" fill="#2CCED9"/>
<path d="M336.78 129.824C333.021 133.131 327.105 130.652 326.826 125.654L326.427 118.517C326.18 114.093 330.649 110.936 334.736 112.649L340.501 115.064C344.588 116.776 345.473 122.175 342.146 125.103L336.78 129.824Z" fill="#2CCED9"/>
<path d="M115.424 60C114.528 60 113.867 59.808 113.44 59.424C113.056 58.9973 112.864 58.336 112.864 57.44V17.76C112.864 16.864 113.056 16.224 113.44 15.84C113.867 15.4133 114.528 15.2 115.424 15.2H129.12C135.733 15.2 140.789 17.1413 144.288 21.024C147.829 24.864 149.6 30.3893 149.6 37.6C149.6 44.8107 147.829 50.3573 144.288 54.24C140.789 58.08 135.733 60 129.12 60H115.424ZM129.12 51.616C132.533 51.616 135.115 50.4213 136.864 48.032C138.613 45.6427 139.488 42.1653 139.488 37.6C139.488 33.0347 138.613 29.5573 136.864 27.168C135.115 24.7787 132.533 23.584 129.12 23.584H122.784V51.616H129.12ZM171.892 60.512C166.26 60.512 162.057 59.0187 159.284 56.032C156.553 53.0027 155.188 48.8213 155.188 43.488C155.188 37.472 156.553 33.056 159.284 30.24C162.057 27.424 165.876 26.016 170.74 26.016C175.476 26.016 178.953 27.552 181.172 30.624C183.433 33.696 184.564 37.664 184.564 42.528C184.564 43.04 184.116 43.808 183.22 44.832C182.367 45.8133 181.727 46.304 181.3 46.304H164.98C165.193 48.736 165.919 50.464 167.156 51.488C168.393 52.512 170.121 53.024 172.34 53.024C173.535 53.024 174.623 52.896 175.604 52.64C176.585 52.3413 177.609 51.9787 178.676 51.552C179.359 51.2107 179.828 51.04 180.084 51.04C180.511 51.04 180.98 51.36 181.492 52C182.047 52.5973 182.495 53.3013 182.836 54.112C183.22 54.88 183.412 55.4773 183.412 55.904C183.412 56.8853 182.751 57.7387 181.428 58.464C180.105 59.1467 178.527 59.6587 176.692 60C174.857 60.3413 173.257 60.512 171.892 60.512ZM175.348 39.968C175.348 38.0053 174.964 36.448 174.196 35.296C173.428 34.1013 172.276 33.504 170.74 33.504C167.583 33.504 165.663 35.6587 164.98 39.968H175.348ZM200.903 60.128C198.855 60.128 197.66 59.68 197.319 58.784L187.143 28.96C186.972 28.3627 186.887 27.9787 186.887 27.808C186.887 26.8693 188.188 26.4 190.791 26.4H192.903C194.994 26.4 196.188 26.848 196.487 27.744L199.687 37.856C200.796 41.2693 201.586 44.64 202.055 47.968H202.311C202.695 44.896 203.484 41.5253 204.679 37.856L207.879 27.744C208.178 26.848 209.372 26.4 211.463 26.4H213.063C215.623 26.4 216.903 26.8693 216.903 27.808C216.903 28.1067 216.839 28.4907 216.711 28.96L206.535 58.784C206.236 59.68 205.042 60.128 202.951 60.128H200.903ZM124.448 133.512C121.419 133.512 118.773 133.213 116.512 132.616C114.251 132.019 112.48 131.251 111.2 130.312C110.005 129.501 109.408 128.691 109.408 127.88C109.408 127.24 109.643 126.472 110.112 125.576C110.581 124.68 111.136 123.891 111.776 123.208C112.416 122.525 112.949 122.184 113.376 122.184C113.632 122.184 114.229 122.44 115.168 122.952C116.533 123.635 117.771 124.168 118.88 124.552C119.989 124.936 121.291 125.128 122.784 125.128C124.448 125.128 125.856 124.808 127.008 124.168C128.203 123.485 128.8 122.312 128.8 120.648C128.8 119.283 128.245 118.216 127.136 117.448C126.069 116.637 124.32 115.741 121.888 114.76L118.944 113.48C116.256 112.2 114.144 110.621 112.608 108.744C111.072 106.824 110.304 104.115 110.304 100.616C110.304 97.7147 111.008 95.304 112.416 93.384C113.867 91.4213 115.744 89.992 118.048 89.096C120.352 88.1573 122.827 87.688 125.472 87.688C127.648 87.688 129.611 87.9227 131.36 88.392C133.152 88.8187 134.56 89.3947 135.584 90.12C136.523 90.8027 136.992 91.4853 136.992 92.168C136.992 92.7653 136.8 93.512 136.416 94.408C136.032 95.304 135.563 96.0933 135.008 96.776C134.453 97.416 133.941 97.736 133.472 97.736C133.259 97.736 132.896 97.6293 132.384 97.416C131.915 97.2027 131.509 97.032 131.168 96.904C129.632 96.392 128.032 96.136 126.368 96.136C124.149 96.136 122.592 96.4987 121.696 97.224C120.843 97.9493 120.416 98.7813 120.416 99.72C120.416 100.829 120.715 101.747 121.312 102.472C121.909 103.197 122.635 103.795 123.488 104.264C124.341 104.691 125.6 105.267 127.264 105.992C129.696 107.016 131.68 107.997 133.216 108.936C134.752 109.832 136.075 111.155 137.184 112.904C138.336 114.611 138.912 116.808 138.912 119.496C138.912 122.781 138.208 125.469 136.8 127.56C135.435 129.651 133.664 131.165 131.488 132.104C129.312 133.043 126.965 133.512 124.448 133.512ZM158.816 133.512C153.355 133.512 149.301 132.125 146.656 129.352C144.011 126.536 142.688 122.248 142.688 116.488C142.688 110.685 144.011 106.333 146.656 103.432C149.344 100.488 153.504 99.016 159.136 99.016C161.739 99.016 164.149 99.4213 166.368 100.232C168.629 101 169.76 102.067 169.76 103.432C169.76 104.072 169.312 105.053 168.416 106.376C167.563 107.699 166.88 108.36 166.368 108.36C166.197 108.36 165.813 108.211 165.216 107.912C164.363 107.485 163.509 107.144 162.656 106.888C161.845 106.632 160.843 106.504 159.648 106.504C157.131 106.504 155.296 107.293 154.144 108.872C152.992 110.451 152.416 112.904 152.416 116.232C152.416 119.56 152.949 122.035 154.016 123.656C155.125 125.235 156.875 126.024 159.264 126.024C160.373 126.024 161.355 125.917 162.208 125.704C163.104 125.448 163.829 125.213 164.384 125C164.981 124.787 165.365 124.637 165.536 124.552C166.219 124.296 166.603 124.168 166.688 124.168C167.115 124.168 167.584 124.488 168.096 125.128C168.651 125.725 169.099 126.429 169.44 127.24C169.824 128.008 170.016 128.605 170.016 129.032C170.016 130.099 169.291 130.973 167.84 131.656C166.432 132.339 164.832 132.808 163.04 133.064C161.248 133.363 159.84 133.512 158.816 133.512ZM179.127 133.128C176.567 133.128 175.286 132.445 175.286 131.08V86.792C175.286 85.4267 176.567 84.744 179.127 84.744H180.919C183.479 84.744 184.759 85.4267 184.759 86.792V103.368C185.825 102.088 187.127 101.043 188.663 100.232C190.241 99.4213 191.948 99.016 193.783 99.016C197.025 99.016 199.436 99.8693 201.015 101.576C202.636 103.24 203.447 105.843 203.447 109.384V131.08C203.447 132.445 202.167 133.128 199.607 133.128H197.815C195.255 133.128 193.975 132.445 193.975 131.08V110.792C193.975 108.147 192.609 106.824 189.878 106.824C188.727 106.824 187.703 107.208 186.807 107.976C185.953 108.701 185.271 109.555 184.759 110.536V131.08C184.759 132.445 183.479 133.128 180.919 133.128H179.127ZM225.49 133.512C220.413 133.512 216.551 132.04 213.906 129.096C211.261 126.109 209.938 121.821 209.938 116.232C209.938 110.643 211.261 106.376 213.906 103.432C216.551 100.488 220.413 99.016 225.49 99.016C230.567 99.016 234.407 100.488 237.01 103.432C239.655 106.376 240.978 110.643 240.978 116.232C240.978 121.821 239.655 126.109 237.01 129.096C234.407 132.04 230.567 133.512 225.49 133.512ZM225.49 126.024C227.495 126.024 228.967 125.213 229.906 123.592C230.887 121.928 231.378 119.475 231.378 116.232C231.378 112.989 230.887 110.557 229.906 108.936C228.967 107.315 227.495 106.504 225.49 106.504C223.485 106.504 221.991 107.315 221.01 108.936C220.029 110.557 219.538 112.989 219.538 116.232C219.538 122.76 221.522 126.024 225.49 126.024ZM261.928 133.512C256.85 133.512 252.989 132.04 250.344 129.096C247.698 126.109 246.376 121.821 246.376 116.232C246.376 110.643 247.698 106.376 250.344 103.432C252.989 100.488 256.85 99.016 261.928 99.016C267.005 99.016 270.845 100.488 273.448 103.432C276.093 106.376 277.416 110.643 277.416 116.232C277.416 121.821 276.093 126.109 273.448 129.096C270.845 132.04 267.005 133.512 261.928 133.512ZM261.928 126.024C263.933 126.024 265.405 125.213 266.344 123.592C267.325 121.928 267.816 119.475 267.816 116.232C267.816 112.989 267.325 110.557 266.344 108.936C265.405 107.315 263.933 106.504 261.928 106.504C259.922 106.504 258.429 107.315 257.448 108.936C256.466 110.557 255.976 112.989 255.976 116.232C255.976 122.76 257.96 126.024 261.928 126.024ZM293.501 133.512C287.272 133.512 284.157 130.056 284.157 123.144V86.792C284.157 85.4267 285.437 84.744 287.997 84.744H289.789C292.349 84.744 293.629 85.4267 293.629 86.792V123.272C293.629 124.253 293.8 124.957 294.141 125.384C294.525 125.811 295.122 126.024 295.933 126.024C296.146 126.024 296.424 125.981 296.765 125.896C297.149 125.811 297.448 125.768 297.661 125.768C298.045 125.768 298.386 126.088 298.685 126.728C298.984 127.368 299.218 128.072 299.389 128.84C299.56 129.608 299.645 130.12 299.645 130.376C299.645 132.467 297.597 133.512 293.501 133.512ZM311.541 133.512C308.896 133.512 306.464 133.107 304.245 132.296C302.026 131.485 300.917 130.44 300.917 129.16C300.917 128.307 301.322 127.283 302.133 126.088C302.944 124.851 303.669 124.232 304.309 124.232C304.65 124.232 305.12 124.403 305.717 124.744C306.613 125.128 307.424 125.448 308.149 125.704C308.917 125.917 309.792 126.024 310.773 126.024C312.053 126.024 313.013 125.789 313.653 125.32C314.336 124.851 314.677 124.189 314.677 123.336C314.677 122.483 314.314 121.821 313.589 121.352C312.864 120.883 311.498 120.221 309.493 119.368C308 118.728 306.72 118.088 305.653 117.448C304.586 116.765 303.648 115.784 302.837 114.504C302.069 113.181 301.685 111.517 301.685 109.512C301.685 106.227 302.73 103.667 304.821 101.832C306.912 99.9547 309.749 99.016 313.333 99.016C315.594 99.016 317.749 99.336 319.797 99.976C321.888 100.616 322.933 101.533 322.933 102.728C322.933 103.539 322.613 104.584 321.973 105.864C321.333 107.144 320.736 107.784 320.181 107.784C320.01 107.784 319.37 107.571 318.261 107.144C317.152 106.675 315.893 106.44 314.485 106.44C312.224 106.44 311.093 107.229 311.093 108.808C311.093 109.747 311.477 110.472 312.245 110.984C313.013 111.453 314.4 112.051 316.405 112.776C318.624 113.587 320.458 114.717 321.909 116.168C323.36 117.576 324.085 119.709 324.085 122.568C324.085 125.896 322.976 128.563 320.757 130.568C318.538 132.531 315.466 133.512 311.541 133.512Z" fill="#2CCED9"/>
<rect y="15" width="101.849" height="118.365" rx="11" fill="#2CCED9"/>
<rect x="14.6436" y="27.4616" width="72.4872" height="11.9283" rx="5.96414" fill="#2CCED9"/>
<rect x="14.6436" y="44.8989" width="72.4872" height="11.9283" rx="5.96414" fill="#2CCED9"/>
<rect x="14.6436" y="62.3363" width="72.4872" height="11.9283" rx="5.96414" fill="#2CCED9"/>
</svg>
